<?xml version="1.0" encoding="UTF-8" standalone="no"?>
<svg
   width="859.22491"
   zoomAndPan="magnify"
   viewBox="0 0 644.32562 140.13673"
   height="186.84897"
   preserveAspectRatio="xMidYMid"
   version="1.0"
   id="svg109"
   fill="#1a2f69"
   fill-opacity="1"
   sodipodi:docname="4e.svg"
   inkscape:version="1.2.2 (b0a8486541, 2022-12-01)"
   xmlns:inkscape="http://www.inkscape.org/namespaces/inkscape"
   xmlns:sodipodi="http://sodipodi.sourceforge.net/DTD/sodipodi-0.dtd"
   xmlns="http://www.w3.org/2000/svg"
   xmlns:svg="http://www.w3.org/2000/svg">
  <sodipodi:namedview
     id="namedview111"
     pagecolor="#ffffff"
     bordercolor="#666666"
     borderopacity="1.0"
     inkscape:showpageshadow="2"
     inkscape:pageopacity="0.0"
     inkscape:pagecheckerboard="0"
     inkscape:deskcolor="#d1d1d1"
     showgrid="false"
     inkscape:zoom="1.2282504"
     inkscape:cx="372.88814"
     inkscape:cy="66.354549"
     inkscape:window-width="1920"
     inkscape:window-height="1011"
     inkscape:window-x="0"
     inkscape:window-y="0"
     inkscape:window-maximized="1"
     inkscape:current-layer="svg109" />
  <defs
     id="defs13">
    <clipPath
       id="118af51aaf">
      <path
         d="M 0,0.0273438 H 830.76172 V 398.96875 H 0 Z m 0,0"
         clip-rule="nonzero"
         id="path4" />
    </clipPath>
    <clipPath
       id="fc79017861">
      <path
         d="M 65.304688,79 H 363 V 319.71484 H 65.304688 Z m 0,0"
         clip-rule="nonzero"
         id="path7" />
    </clipPath>
    <clipPath
       id="b888831f5f">
      <path
         d="m 552.41406,162.91797 h 20.9961 v 20.99609 h -20.9961 z m 0,0"
         clip-rule="nonzero"
         id="path10" />
    </clipPath>
  </defs>
  <g
     clip-path="url(#fc79017861)"
     id="g23"
     transform="translate(-117.86294,-145.67578)">
    <path
       d="m 232.67578,280.96094 c 0,-2.17969 -1.77734,-3.96094 -3.95703,-3.96094 -1.95703,0 -3.58594,1.42578 -3.91016,3.28906 h -60.78906 c -0.1875,0 0.27109,0.11091 0.14339,-0.003 l -22.46587,-20.03903 c -1.60757,-1.43392 -0.31628,1.0586 0.34201,1.65554 l 21.71489,19.69125 61.06246,0.0392 c 1.16518,5.20831 7.7379,3.30982 7.85937,-0.67208 z m -66.44531,-8.32032 c 1.89844,1.10157 4.30078,0.4336 5.41015,-1.44921 1.08594,-1.90235 0.44141,-4.31641 -1.45312,-5.41016 -1.69531,-0.98047 -3.80469,-0.55859 -5.01953,0.89844 l -42.60938,-44.72266 v -71 c 1.15625,-0.30078 2.01563,-1.35547 2.01563,-2.59766 0,-1.47656 -1.20703,-2.68359 -2.68359,-2.68359 -1.47657,0 -2.6875,1.20703 -2.6875,2.68359 0,1.25 0.85937,2.30079 2.01562,2.59766 v 71.34375 c -0.0195,0.1875 0.0469,0.38281 0.21484,0.54297 0.0312,0.0352 0.0742,0.0586 0.1211,0.0859 l 42.9414,44.91015 c -0.64843,1.77344 0.0352,3.8125 1.73438,4.80078 z m -43.92707,-21.72551 29.76301,-29.89558 c 0.16406,-0.16016 0.21484,-0.35547 0.19531,-0.53125 v -24.57422 c 1.15625,-0.30469 2.01562,-1.35547 2.01562,-2.59765 0,-1.47657 -1.21093,-2.6875 -2.6875,-2.6875 -1.47656,0 -2.68359,1.21093 -2.68359,2.6875 0,1.24609 0.85937,2.30078 2.01562,2.59765 v 24.35547 l -29.73175,29.85651 c -0.082,0.0742 -0.15625,0.17578 -0.20313,0.30469 -0.0195,0.0664 -0.0312,0.125 -0.0312,0.19922 1.05304,-0.0247 1.16506,-0.38107 1.34761,0.28516 z m 145.48566,2.81536 c -1.10547,-1.89453 -3.5039,-2.54688 -5.41015,-1.44922 -1.05469,0.61719 -1.72266,1.64453 -1.91797,2.75781 h -52.25782 c -0.1875,-0.0195 -0.38281,0.0469 -0.54296,0.21485 -0.0352,0.0312 -0.0664,0.0742 -0.0859,0.12109 l -7.23828,12.53125 -31.83288,0.4364 c -0.14062,-0.0156 -0.29687,0.0117 -0.44922,0.10547 -0.043,0.0273 -0.0742,0.0547 -0.10937,0.0898 L 152.25,284.46875 h -29.80469 v -30.49609 c 1.86719,-0.32032 3.28907,-1.94532 3.28907,-3.90625 0,-2.17969 -1.77735,-3.96094 -3.96094,-3.96094 -2.17969,0 -3.95703,1.78125 -3.95703,3.96094 0,1.95312 1.42187,3.58593 3.28906,3.90625 v 31.16796 c 0,0.41797 0.32812,0.66407 0.66797,0.67188 h 30.75 c 0.22265,0 0.39453,-0.0937 0.51172,-0.22656 l 15.66712,-15.89954 32.02428,-0.4364 c 0.27341,-0.004 0.46875,-0.14063 0.57813,-0.33594 l 7.23437,-12.52734 h 51.91406 c 0.0742,0.44922 0.23438,0.89453 0.47657,1.30859 0.99218,1.69922 3.01953,2.39063 4.80078,1.73438 l 9.6914,16.79297 c 0.12891,0.23437 0.35547,0.33593 0.57813,0.33593 h 36.5 c 0.30469,1.15235 1.35547,2.01172 2.59766,2.01172 1.47656,0 2.6875,-1.20703 2.6875,-2.68359 0,-1.47656 -1.21094,-2.6836 -2.6875,-2.6836 -1.2461,0 -2.30079,0.85938 -2.59766,2.01172 h -36.11328 l -9.50391,-16.45703 c 1.46485,-1.22265 1.88672,-3.32422 0.90625,-5.02734 z m -126.22686,10.0057 c 1.86692,-0.32032 3.2886,-1.94532 3.2886,-3.90625 0,-2.17969 -1.77709,-3.96094 -3.96037,-3.96094 -2.17937,0 -3.95646,1.78125 -3.95646,3.96094 0,1.95312 1.42167,3.58593 3.28859,3.90625"
       fill-rule="nonzero"
       id="path21"
       sodipodi:nodetypes="cscsssscccccccccssscccccccccccssscccccccccccccccccccssscscsccsccccccscssscccccsssc" />
  </g>
  <g
     id="g31"
     transform="translate(-117.86294,-145.67578)">
    <g
       transform="translate(155.70818,246.20079)"
       id="g29">
      <g
         id="g27">
        <path
           d="M 8.703125,0 V -81.28125 H 26.125 v 65.484375 H 66.0625 V 0 Z m 0,0"
           id="path25" />
      </g>
    </g>
  </g>
  <g
     id="g39"
     transform="translate(-117.86294,-145.67578)">
    <g
       transform="translate(223.26692,246.20079)"
       id="g37">
      <g
         id="g35">
        <path
           d="M 19.28125,0 1.390625,-55.734375 h 17.1875 l 10.21875,38.078125 11.03125,-38.078125 H 55.15625 L 66.1875,-17.65625 76.28125,-55.734375 H 93.578125 L 75.59375,0 H 58.40625 L 47.484375,-36.21875 36.453125,0 Z m 0,0"
           id="path33" />
      </g>
    </g>
  </g>
  <g
     id="g47"
     transform="translate(-117.86294,-145.67578)">
    <g
       transform="translate(318.22065,246.20079)"
       id="g45">
      <g
         id="g43">
        <path
           d="m 15.09375,-65.015625 c -2.480469,0 -4.6875,-0.734375 -6.625,-2.203125 -1.929688,-1.476562 -2.890625,-3.800781 -2.890625,-6.96875 0,-3.175781 0.960937,-5.476562 2.890625,-6.90625 1.9375,-1.4375 4.144531,-2.15625 6.625,-2.15625 2.550781,0 4.753906,0.71875 6.609375,2.15625 1.863281,1.429688 2.796875,3.730469 2.796875,6.90625 0,3.167969 -0.933594,5.492188 -2.796875,6.96875 -1.855469,1.46875 -4.058594,2.203125 -6.609375,2.203125 z M 6.96875,0 V -55.734375 H 23.109375 V 0 Z m 0,0"
           id="path41" />
      </g>
    </g>
  </g>
  <g
     id="g55"
     transform="translate(-117.86294,-145.67578)">
    <g
       transform="translate(348.40154,246.20079)"
       id="g53">
      <g
         id="g51">
        <path
           d="M 6.84375,0 V -55.734375 H 21.125 v 6.390625 c 1.476562,-1.707031 3.765625,-3.46875 6.859375,-5.28125 3.09375,-1.820312 6.769531,-2.734375 11.03125,-2.734375 4.175781,0 7.65625,0.777344 10.4375,2.328125 2.789063,1.542969 4.960937,3.515625 6.515625,5.921875 2.320312,-2.25 5.050781,-4.1875 8.1875,-5.8125 3.132812,-1.625 6.597656,-2.4375 10.390625,-2.4375 3.945313,0 7.253906,0.679687 9.921875,2.03125 2.664062,1.355469 4.789062,3.117187 6.375,5.28125 1.59375,2.167969 2.738281,4.546875 3.4375,7.140625 0.695312,2.59375 1.046875,5.132812 1.046875,7.609375 V 0 H 79.1875 v -34.25 c 0,-2.945312 -0.8125,-5.191406 -2.4375,-6.734375 -1.625,-1.550781 -3.679688,-2.328125 -6.15625,-2.328125 -2.167969,0 -4.199219,0.542969 -6.09375,1.625 -1.898438,1.085938 -3.5,2.359375 -4.8125,3.828125 0,0.46875 0.01563,0.898437 0.04687,1.28125 0.03906,0.386719 0.0625,0.8125 0.0625,1.28125 V 0 H 43.65625 v -34.25 c 0,-2.945312 -0.8125,-5.191406 -2.4375,-6.734375 -1.625,-1.550781 -3.714844,-2.328125 -6.265625,-2.328125 -2.40625,0 -4.671875,0.664062 -6.796875,1.984375 -2.125,1.3125 -3.851562,2.859375 -5.171875,4.640625 V 0 Z m 0,0"
           id="path49" />
      </g>
    </g>
  </g>
  <g
     id="g63"
     transform="translate(-117.86294,-145.67578)">
    <g
       transform="translate(449.97185,246.20079)"
       id="g61">
      <g
         id="g59">
        <path
           d="m 15.09375,-65.015625 c -2.480469,0 -4.6875,-0.734375 -6.625,-2.203125 -1.929688,-1.476562 -2.890625,-3.800781 -2.890625,-6.96875 0,-3.175781 0.960937,-5.476562 2.890625,-6.90625 1.9375,-1.4375 4.144531,-2.15625 6.625,-2.15625 2.550781,0 4.753906,0.71875 6.609375,2.15625 1.863281,1.429688 2.796875,3.730469 2.796875,6.90625 0,3.167969 -0.933594,5.492188 -2.796875,6.96875 -1.855469,1.46875 -4.058594,2.203125 -6.609375,2.203125 z M 6.96875,0 V -55.734375 H 23.109375 V 0 Z m 0,0"
           id="path57" />
      </g>
    </g>
  </g>
  <g
     id="g71"
     transform="translate(-117.86294,-145.67578)">
    <g
       transform="translate(480.15274,246.20079)"
       id="g69">
      <g
         id="g67">
        <path
           d="M 8.703125,0 V -81.28125 H 26.125 v 65.484375 H 66.0625 V 0 Z m 0,0"
           id="path65" />
      </g>
    </g>
  </g>
  <g
     id="g79"
     transform="translate(-117.86294,-145.67578)">
    <g
       transform="translate(547.71148,246.20079)"
       id="g77">
      <g
         id="g75">
        <path
           d="m 15.09375,-65.015625 c -2.480469,0 -4.6875,-0.734375 -6.625,-2.203125 -1.929688,-1.476562 -2.890625,-3.800781 -2.890625,-6.96875 0,-3.175781 0.960937,-5.476562 2.890625,-6.90625 1.9375,-1.4375 4.144531,-2.15625 6.625,-2.15625 2.550781,0 4.753906,0.71875 6.609375,2.15625 1.863281,1.429688 2.796875,3.730469 2.796875,6.90625 0,3.167969 -0.933594,5.492188 -2.796875,6.96875 -1.855469,1.46875 -4.058594,2.203125 -6.609375,2.203125 z"
           fill="#d11f26"
           id="path73a" />
        <path
           d="M 6.96875,0 V -55.734375 H 23.109375 V 0 Z m 0,0"
           id="path73b" />
      </g>
    </g>
  </g>
  <g
     id="g87"
     transform="translate(-117.86294,-145.67578)">
    <g
       transform="translate(577.89237,246.20079)"
       id="g85">
      <g
         id="g83">
        <path
           d="M 6.84375,0 V -55.734375 H 21.125 v 7.078125 c 2.175781,-2.46875 4.8125,-4.535156 7.90625,-6.203125 3.09375,-1.664063 6.648438,-2.5 10.671875,-2.5 4.882813,0 9.007813,1.007813 12.375,3.015625 3.363281,2.011719 5.914063,4.742188 7.65625,8.1875 1.738281,3.449219 2.609375,7.339844 2.609375,11.671875 V 0 h -16.125 v -32.390625 c 0,-3.71875 -1.027344,-6.46875 -3.078125,-8.25 -2.054687,-1.78125 -4.632813,-2.671875 -7.734375,-2.671875 -2.855469,0 -5.328125,0.742188 -7.421875,2.21875 -2.09375,1.46875 -3.761719,3.054688 -5,4.75 V 0 Z m 0,0"
           id="path81" />
      </g>
    </g>
  </g>
  <g
     id="g95"
     transform="translate(-117.86294,-145.67578)">
    <g
       transform="translate(646.37976,246.20079)"
       id="g93">
      <g
         id="g91">
        <path
           d="m 6.84375,0 v -81.28125 h 16.140625 v 46.453125 H 28.5625 l 15.203125,-20.90625 H 62 L 41.796875,-28.328125 63.625,0 H 45.515625 l -17.1875,-22.171875 h -5.34375 V 0 Z m 0,0"
           id="path89" />
      </g>
    </g>
  </g>
  <g
     id="g103"
     transform="translate(-117.86294,-145.67578)">
    <g
       transform="translate(709.87572,246.20079)"
       id="g101">
      <g
         id="g99">
        <path
           d="m 27.046875,1.625 c -4.25,0 -8.292969,-0.449219 -12.125,-1.34375 C 11.085938,-0.601562 7.738281,-1.894531 4.875,-3.59375 v -13.359375 c 3.019531,1.9375 6.484375,3.414063 10.390625,4.421875 3.90625,1 7.523437,1.5 10.859375,1.5 2.9375,0 5.296875,-0.304688 7.078125,-0.921875 1.78125,-0.625 2.671875,-1.707031 2.671875,-3.25 0,-1.476563 -0.757812,-2.679687 -2.265625,-3.609375 -1.511719,-0.925781 -3.464844,-1.738281 -5.859375,-2.4375 -2.398438,-0.695312 -4.933594,-1.453125 -7.609375,-2.265625 -2.667969,-0.8125 -5.203125,-1.875 -7.609375,-3.1875 -2.398438,-1.3125 -4.351562,-3.050781 -5.859375,-5.21875 -1.511719,-2.175781 -2.265625,-4.925781 -2.265625,-8.25 0,-4.332031 1.117188,-7.738281 3.359375,-10.21875 2.25,-2.476563 5.15625,-4.257813 8.71875,-5.34375 3.5625,-1.082031 7.28125,-1.625 11.15625,-1.625 3.945313,0 7.640625,0.449219 11.078125,1.34375 3.445312,0.886719 6.601562,2.027344 9.46875,3.421875 V -39.25 c -2.398438,-1.625 -5.417969,-2.976562 -9.0625,-4.0625 -3.636719,-1.082031 -7.078125,-1.625 -10.328125,-1.625 -1.855469,0 -3.617187,0.292969 -5.28125,0.875 -1.667969,0.585938 -2.5,1.765625 -2.5,3.546875 0,1.542969 0.753906,2.761719 2.265625,3.65625 1.507812,0.886719 3.460938,1.679687 5.859375,2.375 2.40625,0.699219 4.941406,1.453125 7.609375,2.265625 2.664062,0.8125 5.179688,1.859375 7.546875,3.140625 2.363281,1.273437 4.296875,2.992187 5.796875,5.15625 1.507812,2.167969 2.265625,4.953125 2.265625,8.359375 0,4.335938 -1.183594,7.761719 -3.546875,10.28125 -2.355469,2.511719 -5.449219,4.289062 -9.28125,5.328125 C 35.695312,1.097656 31.535156,1.625 27.046875,1.625 Z m 0,0"
           id="path97" />
      </g>
    </g>
  </g>
</svg>
